<svg xmlns="http://www.w3.org/2000/svg" version="1.1" xmlns:xlink="http://www.w3.org/1999/xlink" xmlns:svgjs="http://svgjs.dev/svgjs" viewBox="0 0 1920 1080"><rect width="1920" height="1080" fill="#b89393"></rect><g transform="matrix(1.15,0,0,1.15,-140.42187881469727,-81)"><path d="M0,-1080C8.576567707305385,-1006.26268317196,54.797022341012735,-798.2302120090552,51.459406243832305,-637.5760990317601C48.121790146651875,-476.92198605446504,-9.812786885343135,-266.0509554190005,-20.025696583082556,-116.07532213622933C-30.238606280821976,33.900311146541824,-24.23290915930727,121.22097326602992,-9.818051942604228,262.27770066486676C4.596805274098813,403.3344280637036,72.49423001673873,559.3829334492594,66.4634467171357,730.2650422567917C60.43266341753267,901.147151064324,-34.70020562708631,1116.1963000176245,-46.002751740222365,1287.5703535100604C-57.30529785335842,1458.9444070024963,-9.018955251717667,1613.1044221297502,-1.3518299616806075,1758.509363211407C6.315295328356453,1903.9143042930637,-0.2253049936134346,2093.0848938685676,0,2160L 1920 2160 L 1920 -1080 Z" fill="url(&quot;#SvgjsLinearGradient1143&quot;)"></path><path d="M320,-1080C318.2405929050638,-952.9214948340358,320.70217690677475,-592.9464932591304,309.44355743038284,-317.5289690042146C298.1849379539909,-42.111444749298755,243.18144180978564,302.4773635926621,252.44828314164852,572.5051455294953C261.71512447351137,842.5329274663285,353.78598594516814,1038.0552468717005,365.04460542156005,1302.6377226167847C376.30322489795196,1567.2201983618688,327.50743423692666,2017.1062871027975,320,2160L 1920 2160 L 1920 -1080 Z" fill="url(&quot;#SvgjsLinearGradient1144&quot;)"></path><path d="M640,-1080C629.8276084267015,-1014.6759033808146,566.7224154876719,-830.1410606253775,578.9656505602095,-688.0554202848875C591.2088856327471,-545.9697799443976,708.0209246236273,-355.472387538701,713.4594104352254,-227.48615795706064C718.8978962468236,-99.49992837542027,633.2549433389806,-45.251419526358845,611.5965654297983,79.86195720495466C589.9381875206159,204.97533393626816,574.038619517377,390.0346051820063,583.5091429801314,523.1941024308204C592.9796664428858,656.3535996796345,661.6105752952217,749.3092965850906,668.4197062063243,878.8189406978395C675.228837117427,1008.3285848105884,619.1307549228271,1142.3361353303665,624.3639284467477,1300.251967107314C629.5971019706682,1458.1677988842614,697.2127354243054,1683.0225925440766,699.8187473498474,1826.3139313595243C702.4247592753894,1969.605270174972,649.9697912249745,2104.3856552265875,640,2160L 1920 2160 L 1920 -1080 Z" fill="url(&quot;#SvgjsLinearGradient1145&quot;)"></path><path d="M960,-1080C969.8256091388771,-961.5502060360694,1020.8812810274385,-592.0590697364962,1018.9536548332625,-369.3012362164164C1017.0260286390865,-146.5434026963365,965.8224348957501,45.21562948160411,948.4342428349436,256.5470011204792C931.046050774137,467.8783727593543,924.9986653217985,687.7521655252762,914.6245024684233,898.6869936168341C904.2503396150481,1109.621821708392,878.6266827927627,1311.9371352726323,886.1892657146922,1522.1559696698266C893.7518486366216,1732.374804067021,947.6982109524487,2053.692661611638,960,2160L 1920 2160 L 1920 -1080 Z" fill="url(&quot;#SvgjsLinearGradient1146&quot;)"></path><path d="M1280,-1080C1279.576250797543,-983.9922768257352,1269.4115493484337,-685.1490368441595,1277.4575047852586,-503.9536609544114C1285.5034602220835,-322.75828506466337,1326.6172903262275,-173.96296449441206,1328.275732620949,7.172255338488313C1329.9341749156704,188.30747517138866,1294.3505494336275,411.871075883555,1287.408158553587,582.8576580429908C1280.4657676735467,753.8442402024266,1300.1100743481636,853.2927543924869,1286.621387340706,1033.0917482951031C1273.1327003332483,1212.8907421977194,1207.5796010656254,1473.833579507872,1206.4760365088412,1661.6516214586882C1205.372471952057,1849.4696634095044,1267.7460060848068,2076.9419369097814,1280,2160L 1920 2160 L 1920 -1080 Z" fill="url(&quot;#SvgjsLinearGradient1147&quot;)"></path><path d="M1600,-1080C1591.4264982942705,-1002.2944382936985,1537.5260676635492,-797.1262706462027,1548.5589897656232,-613.7666297621907C1559.5919118676973,-430.4069888781788,1667.8156885950016,-161.0410252568286,1666.1975326124443,20.157845304071316C1664.579376629887,201.35671586497122,1540.2432044439045,306.80926438055326,1538.8500538702795,473.42659360320874C1537.4569032966544,640.0439228258642,1649.894428871056,817.90333343348,1657.838629170694,1019.8618206400042C1665.782829470332,1221.8203078465283,1596.155027196556,1495.154486949021,1586.5152556681069,1685.1775168423537C1576.8754841396578,1875.2005467356864,1597.7525426113511,2080.8629194737255,1600,2160L 1920 2160 L 1920 -1080 Z" fill="url(&quot;#SvgjsLinearGradient1148&quot;)"></path></g><defs><linearGradient x1="0.1" y1="0" x2="0" y2="1" id="SvgjsLinearGradient1143"><stop stop-color="#b89393" offset="0"></stop><stop stop-color="#b89399" offset="0"></stop></linearGradient><linearGradient x1="0.1" y1="0" x2="0" y2="1" id="SvgjsLinearGradient1144"><stop stop-color="#c5a6a6" offset="0"></stop><stop stop-color="#c5a6ab" offset="0.16666666666666666"></stop></linearGradient><linearGradient x1="0.1" y1="0" x2="0" y2="1" id="SvgjsLinearGradient1145"><stop stop-color="#d2baba" offset="0"></stop><stop stop-color="#d2babe" offset="0.3333333333333333"></stop></linearGradient><linearGradient x1="0.1" y1="0" x2="0" y2="1" id="SvgjsLinearGradient1146"><stop stop-color="#decdcd" offset="0"></stop><stop stop-color="#decdd0" offset="0.5"></stop></linearGradient><linearGradient x1="0.1" y1="0" x2="0" y2="1" id="SvgjsLinearGradient1147"><stop stop-color="#ebe1e1" offset="0"></stop><stop stop-color="#ebe1e3" offset="0.6666666666666666"></stop></linearGradient><linearGradient x1="0.1" y1="0" x2="0" y2="1" id="SvgjsLinearGradient1148"><stop stop-color="#f8f4f4" offset="0"></stop><stop stop-color="#f8f4f5" offset="0.8333333333333334"></stop></linearGradient></defs></svg>